STARTFONT 2.1
FONT -FontForge-JetBrains Mono-Book-R-Normal--12-120-75-75-C-70-ISO10646-1
SIZE 12 75 75
FONTBOUNDINGBOX 7 12 0 -2
COMMENT "Generated by fontforge, http://fontforge.sourceforge.net"
COMMENT "Copyright 2020 The JetBrains Mono Project Authors (https://github.com/JetBrains/JetBrainsMono)"
STARTPROPERTIES 38
FOUNDRY "FontForge"
FAMILY_NAME "JetBrains Mono"
WEIGHT_NAME "Book"
SLANT "R"
SETWIDTH_NAME "Normal"
ADD_STYLE_NAME ""
PIXEL_SIZE 12
POINT_SIZE 120
RESOLUTION_X 75
RESOLUTION_Y 75
SPACING "C"
AVERAGE_WIDTH 70
CHARSET_REGISTRY "ISO10646"
CHARSET_ENCODING "1"
FONTNAME_REGISTRY ""
CHARSET_COLLECTIONS "ISO10646-1"
FONT_NAME "JetBrainsMono-Regular"
FACE_NAME "JetBrains Mono Regular"
COPYRIGHT "Copyright 2020 The JetBrains Mono Project Authors (https://github.com/JetBrains/JetBrainsMono)"
FONT_VERSION "2.304; ttfautohint (v1.8.4.7-5d5b)"
FONT_ASCENT 10
FONT_DESCENT 2
UNDERLINE_POSITION -2
UNDERLINE_THICKNESS 1
CAP_HEIGHT 8
RAW_ASCENT 833
RAW_DESCENT 166
NORM_SPACE 7
RELATIVE_WEIGHT 40
RELATIVE_SETWIDTH 50
SUPERSCRIPT_X 0
SUPERSCRIPT_Y 4
SUPERSCRIPT_SIZE 7
SUBSCRIPT_X 0
SUBSCRIPT_Y 1
SUBSCRIPT_SIZE 7
FIGURE_WIDTH 7
AVG_UPPERCASE_WIDTH 70
ENDPROPERTIES
CHARS 63
STARTCHAR space
ENCODING 32
SWIDTH 583 0
DWIDTH 7 0
BBX 1 1 0 0
BITMAP
00
ENDCHAR
STARTCHAR percent
ENCODING 37
SWIDTH 583 0
DWIDTH 7 0
BBX 7 9 0 0
BITMAP
62
94
98
68
10
2E
2A
4A
8E
ENDCHAR
STARTCHAR zero
ENCODING 48
SWIDTH 583 0
DWIDTH 7 0
BBX 5 9 1 0
BITMAP
70
88
88
88
A8
88
88
88
70
ENDCHAR
STARTCHAR one
ENCODING 49
SWIDTH 583 0
DWIDTH 7 0
BBX 5 9 1 0
BITMAP
70
F0
B0
30
30
30
30
30
F8
ENDCHAR
STARTCHAR two
ENCODING 50
SWIDTH 583 0
DWIDTH 7 0
BBX 5 9 1 0
BITMAP
70
88
88
08
18
30
60
C0
F8
ENDCHAR
STARTCHAR three
ENCODING 51
SWIDTH 583 0
DWIDTH 7 0
BBX 5 9 1 0
BITMAP
F8
10
30
30
18
08
88
88
70
ENDCHAR
STARTCHAR four
ENCODING 52
SWIDTH 583 0
DWIDTH 7 0
BBX 5 9 1 0
BITMAP
10
20
20
40
C8
88
F8
08
08
ENDCHAR
STARTCHAR five
ENCODING 53
SWIDTH 583 0
DWIDTH 7 0
BBX 5 9 1 0
BITMAP
F8
80
80
F0
08
08
88
88
70
ENDCHAR
STARTCHAR six
ENCODING 54
SWIDTH 583 0
DWIDTH 7 0
BBX 5 9 1 0
BITMAP
30
20
40
70
88
88
88
88
70
ENDCHAR
STARTCHAR seven
ENCODING 55
SWIDTH 583 0
DWIDTH 7 0
BBX 6 9 1 0
BITMAP
FC
88
08
18
10
10
20
20
60
ENDCHAR
STARTCHAR eight
ENCODING 56
SWIDTH 583 0
DWIDTH 7 0
BBX 5 9 1 0
BITMAP
70
88
88
88
70
88
88
88
70
ENDCHAR
STARTCHAR nine
ENCODING 57
SWIDTH 583 0
DWIDTH 7 0
BBX 5 9 1 0
BITMAP
70
88
88
88
88
78
10
20
60
ENDCHAR
STARTCHAR A
ENCODING 65
SWIDTH 583 0
DWIDTH 7 0
BBX 6 9 1 0
BITMAP
20
70
50
50
50
C8
F8
88
8C
ENDCHAR
STARTCHAR B
ENCODING 66
SWIDTH 583 0
DWIDTH 7 0
BBX 5 9 1 0
BITMAP
F0
88
88
88
F0
88
88
88
F0
ENDCHAR
STARTCHAR C
ENCODING 67
SWIDTH 583 0
DWIDTH 7 0
BBX 5 9 1 0
BITMAP
70
88
88
80
80
80
88
88
70
ENDCHAR
STARTCHAR D
ENCODING 68
SWIDTH 583 0
DWIDTH 7 0
BBX 5 9 1 0
BITMAP
F0
88
88
88
88
88
88
88
F0
ENDCHAR
STARTCHAR E
ENCODING 69
SWIDTH 583 0
DWIDTH 7 0
BBX 5 9 1 0
BITMAP
F8
80
80
80
F8
80
80
80
F8
ENDCHAR
STARTCHAR F
ENCODING 70
SWIDTH 583 0
DWIDTH 7 0
BBX 5 9 1 0
BITMAP
F8
80
80
80
F8
80
80
80
80
ENDCHAR
STARTCHAR G
ENCODING 71
SWIDTH 583 0
DWIDTH 7 0
BBX 5 9 1 0
BITMAP
70
88
80
80
B8
88
88
88
70
ENDCHAR
STARTCHAR H
ENCODING 72
SWIDTH 583 0
DWIDTH 7 0
BBX 5 9 1 0
BITMAP
88
88
88
88
F8
88
88
88
88
ENDCHAR
STARTCHAR I
ENCODING 73
SWIDTH 583 0
DWIDTH 7 0
BBX 5 9 1 0
BITMAP
F8
20
20
20
20
20
20
20
F8
ENDCHAR
STARTCHAR J
ENCODING 74
SWIDTH 583 0
DWIDTH 7 0
BBX 5 9 1 0
BITMAP
08
08
08
08
08
08
88
98
70
ENDCHAR
STARTCHAR K
ENCODING 75
SWIDTH 583 0
DWIDTH 7 0
BBX 6 9 1 0
BITMAP
8C
88
90
90
E0
90
90
88
8C
ENDCHAR
STARTCHAR L
ENCODING 76
SWIDTH 583 0
DWIDTH 7 0
BBX 5 9 2 0
BITMAP
80
80
80
80
80
80
80
80
F8
ENDCHAR
STARTCHAR M
ENCODING 77
SWIDTH 583 0
DWIDTH 7 0
BBX 5 9 1 0
BITMAP
C8
D8
D8
A8
A8
88
88
88
88
ENDCHAR
STARTCHAR N
ENCODING 78
SWIDTH 583 0
DWIDTH 7 0
BBX 5 9 1 0
BITMAP
C8
C8
C8
A8
A8
A8
98
98
88
ENDCHAR
STARTCHAR O
ENCODING 79
SWIDTH 583 0
DWIDTH 7 0
BBX 5 9 1 0
BITMAP
70
88
88
88
88
88
88
88
70
ENDCHAR
STARTCHAR P
ENCODING 80
SWIDTH 583 0
DWIDTH 7 0
BBX 6 9 1 0
BITMAP
F8
88
8C
88
F8
80
80
80
80
ENDCHAR
STARTCHAR Q
ENCODING 81
SWIDTH 583 0
DWIDTH 7 0
BBX 5 11 1 -2
BITMAP
70
88
88
88
88
88
88
88
70
10
08
ENDCHAR
STARTCHAR R
ENCODING 82
SWIDTH 583 0
DWIDTH 7 0
BBX 6 9 1 0
BITMAP
F0
88
88
88
F0
90
90
88
8C
ENDCHAR
STARTCHAR S
ENCODING 83
SWIDTH 583 0
DWIDTH 7 0
BBX 5 9 1 0
BITMAP
70
88
80
C0
70
08
88
88
70
ENDCHAR
STARTCHAR T
ENCODING 84
SWIDTH 583 0
DWIDTH 7 0
BBX 6 9 1 0
BITMAP
FC
20
20
20
20
20
20
20
20
ENDCHAR
STARTCHAR U
ENCODING 85
SWIDTH 583 0
DWIDTH 7 0
BBX 5 9 1 0
BITMAP
88
88
88
88
88
88
88
88
70
ENDCHAR
STARTCHAR V
ENCODING 86
SWIDTH 583 0
DWIDTH 7 0
BBX 6 9 1 0
BITMAP
8C
88
88
C8
50
50
50
50
20
ENDCHAR
STARTCHAR W
ENCODING 87
SWIDTH 583 0
DWIDTH 7 0
BBX 7 9 0 0
BITMAP
92
92
5A
6A
6C
6C
6C
6C
6C
ENDCHAR
STARTCHAR X
ENCODING 88
SWIDTH 583 0
DWIDTH 7 0
BBX 7 9 0 0
BITMAP
46
64
28
38
10
38
28
44
C6
ENDCHAR
STARTCHAR Y
ENCODING 89
SWIDTH 583 0
DWIDTH 7 0
BBX 7 9 0 0
BITMAP
C6
44
24
28
18
10
10
10
10
ENDCHAR
STARTCHAR Z
ENCODING 90
SWIDTH 583 0
DWIDTH 7 0
BBX 5 9 1 0
BITMAP
F8
08
10
10
20
60
40
80
F8
ENDCHAR
STARTCHAR uni21E7
ENCODING 8679
SWIDTH 583 0
DWIDTH 7 0
BBX 7 10 0 0
BITMAP
10
28
44
E6
28
28
28
28
28
38
ENDCHAR
STARTCHAR uni2303
ENCODING 8963
SWIDTH 583 0
DWIDTH 7 0
BBX 7 3 0 6
BITMAP
10
28
C6
ENDCHAR
STARTCHAR uni2318
ENCODING 8984
SWIDTH 583 0
DWIDTH 7 0
BBX 7 7 0 1
BITMAP
E6
AA
FE
28
FE
AA
E6
ENDCHAR
STARTCHAR uni2325
ENCODING 8997
SWIDTH 583 0
DWIDTH 7 0
BBX 7 9 0 0
BITMAP
E6
20
10
10
10
10
08
08
0E
ENDCHAR
STARTCHAR .notdef
ENCODING -1
SWIDTH 583 0
DWIDTH 7 0
BBX 1 1 0 0
BITMAP
00
ENDCHAR
STARTCHAR zero.frac
ENCODING -1
SWIDTH 583 0
DWIDTH 7 0
BBX 4 5 2 4
BITMAP
E0
90
90
90
E0
ENDCHAR
STARTCHAR one.frac
ENCODING -1
SWIDTH 583 0
DWIDTH 7 0
BBX 4 5 2 4
BITMAP
C0
C0
40
40
F0
ENDCHAR
STARTCHAR two.frac
ENCODING -1
SWIDTH 583 0
DWIDTH 7 0
BBX 3 5 2 4
BITMAP
E0
A0
20
40
E0
ENDCHAR
STARTCHAR three.frac
ENCODING -1
SWIDTH 583 0
DWIDTH 7 0
BBX 4 5 2 4
BITMAP
E0
40
20
90
E0
ENDCHAR
STARTCHAR four.frac
ENCODING -1
SWIDTH 583 0
DWIDTH 7 0
BBX 3 5 2 4
BITMAP
60
40
A0
E0
20
ENDCHAR
STARTCHAR five.frac
ENCODING -1
SWIDTH 583 0
DWIDTH 7 0
BBX 4 5 2 4
BITMAP
E0
E0
10
90
E0
ENDCHAR
STARTCHAR six.frac
ENCODING -1
SWIDTH 583 0
DWIDTH 7 0
BBX 4 5 2 4
BITMAP
40
E0
90
90
E0
ENDCHAR
STARTCHAR seven.frac
ENCODING -1
SWIDTH 583 0
DWIDTH 7 0
BBX 4 5 2 4
BITMAP
F0
A0
20
40
40
ENDCHAR
STARTCHAR eight.frac
ENCODING -1
SWIDTH 583 0
DWIDTH 7 0
BBX 4 5 2 4
BITMAP
E0
90
60
90
E0
ENDCHAR
STARTCHAR nine.frac
ENCODING -1
SWIDTH 583 0
DWIDTH 7 0
BBX 4 5 2 4
BITMAP
E0
90
E0
20
40
ENDCHAR
STARTCHAR glyph47
ENCODING -1
SWIDTH 583 0
DWIDTH 7 0
BBX 4 5 2 5
BITMAP
E0
90
90
90
E0
ENDCHAR
STARTCHAR glyph48
ENCODING -1
SWIDTH 583 0
DWIDTH 7 0
BBX 4 5 2 5
BITMAP
C0
C0
40
40
F0
ENDCHAR
STARTCHAR glyph49
ENCODING -1
SWIDTH 583 0
DWIDTH 7 0
BBX 3 5 2 5
BITMAP
E0
A0
20
40
E0
ENDCHAR
STARTCHAR glyph50
ENCODING -1
SWIDTH 583 0
DWIDTH 7 0
BBX 4 5 2 5
BITMAP
E0
40
20
90
E0
ENDCHAR
STARTCHAR glyph51
ENCODING -1
SWIDTH 583 0
DWIDTH 7 0
BBX 3 5 2 5
BITMAP
60
40
A0
E0
20
ENDCHAR
STARTCHAR glyph52
ENCODING -1
SWIDTH 583 0
DWIDTH 7 0
BBX 4 5 2 5
BITMAP
E0
E0
10
90
E0
ENDCHAR
STARTCHAR glyph53
ENCODING -1
SWIDTH 583 0
DWIDTH 7 0
BBX 4 5 2 5
BITMAP
40
E0
90
90
E0
ENDCHAR
STARTCHAR glyph54
ENCODING -1
SWIDTH 583 0
DWIDTH 7 0
BBX 4 5 2 5
BITMAP
F0
A0
20
40
40
ENDCHAR
STARTCHAR glyph55
ENCODING -1
SWIDTH 583 0
DWIDTH 7 0
BBX 4 5 2 5
BITMAP
E0
90
60
90
E0
ENDCHAR
STARTCHAR glyph56
ENCODING -1
SWIDTH 583 0
DWIDTH 7 0
BBX 4 5 2 5
BITMAP
E0
90
E0
20
40
ENDCHAR
ENDFONT
